<?xml version="1.0" encoding="utf-8"?>
<!-- Generator: Adobe Illustrator 16.0.0, SVG Export Plug-In . SVG Version: 6.00 Build 0)  -->
<!DOCTYPE svg PUBLIC "-//W3C//DTD SVG 1.1//EN" "http://www.w3.org/Graphics/SVG/1.1/DTD/svg11.dtd">
<svg version="1.1" xmlns="http://www.w3.org/2000/svg" xmlns:xlink="http://www.w3.org/1999/xlink" x="0px" y="0px" width="100px"
	 height="100px" viewBox="0 0 100 100" enable-background="new 0 0 100 100" xml:space="preserve">
<g id="Layer_2" display="none">
	<rect display="inline" fill="#00304C" width="100" height="100"/>
</g>
<g id="Layer_3" display="none">
	<g id="Layer_1" display="inline">
		<path fill="#729D5F" d="M82.792,78.791L82.792,78.791c1.249-1.25,1.666-2.5,1.666-4.584c0-3.334-2.916-6.25-6.25-6.25
			c-1.666,0-3.333,0.834-4.583,1.666l0,0l0,0l0,0c-5.417,5.418-12.5,8.334-20.416,8.334c-16.25,0-29.166-12.916-29.166-29.166
			s12.916-29.166,29.166-29.166c7.916,0,15.416,3.333,20.416,8.75l0,0c1.25,1.25,2.917,2.083,4.583,2.083
			c3.334,0,6.25-2.917,6.25-6.25c0-1.667-0.834-3.333-1.666-4.583l0,0c-7.5-7.5-17.917-12.084-29.583-12.084
			c-22.916,0-41.665,18.75-41.665,41.666c0,22.916,18.75,41.665,41.665,41.665C64.875,90.872,75.292,86.291,82.792,78.791z"/>
	</g>
	<g id="info_2_" display="inline">
	</g>
	<g id="icons_2_" display="inline">
		<path id="share_2_" fill="#729D5F" d="M37.23,46.658l13.534-16.976c1.008-1.398,2.599-0.364,2.875,1.608l1.035,7.397
			c11.112-1.555,21.568,4.271,27.407,13.257c2.104,2.974,3.53,6.293,4.724,9.645c0.817,2.399-2.556,4.129-4.285,2.109
			C76.11,55.794,66.57,51.35,56.64,52.739l1.139,8.136c0.276,1.973-0.969,3.403-2.322,2.336L37.782,50.603
			C36.697,49.749,36.421,47.775,37.23,46.658z"/>
	</g>
</g>
<g id="login" display="none">
	<path display="inline" fill="#FFFFFF" d="M72.792,78.791L72.792,78.791c1.249-1.25,1.666-2.5,1.666-4.584
		c0-3.334-2.916-6.25-6.25-6.25c-1.666,0-3.333,0.834-4.583,1.666l0,0l0,0l0,0c-5.417,5.418-12.5,8.334-20.416,8.334
		c-16.25,0-29.166-12.916-29.166-29.166s12.916-29.166,29.166-29.166c7.916,0,15.416,3.333,20.416,8.75l0,0
		c1.25,1.25,2.917,2.083,4.583,2.083c3.334,0,6.25-2.917,6.25-6.25c0-1.667-0.834-3.333-1.666-4.583l0,0
		c-7.5-7.5-17.917-12.084-29.583-12.084c-22.916,0-41.665,18.75-41.665,41.666c0,22.916,18.75,41.665,41.665,41.665
		C54.875,90.872,65.292,86.291,72.792,78.791z"/>
	<g id="info_3_" display="inline">
	</g>
	<g id="icons_3_" display="inline">
		<path id="share_3_" fill="#FFFFFF" d="M28.222,47.851l11.899-18.159c0.874-1.486,2.554-0.604,3.012,1.334l1.718,7.269
			c10.92-2.58,21.871,2.25,28.519,10.656c2.371,2.766,4.1,5.938,5.599,9.164c1.037,2.313-2.161,4.349-4.07,2.498
			c-7.115-7.274-17.026-10.813-26.785-8.508l1.889,7.994c0.458,1.938-0.648,3.479-2.096,2.542L29.138,51.728
			C27.978,50.978,27.52,49.038,28.222,47.851z"/>
	</g>
</g>
<g id="Layer_4" display="none">
	<path display="inline" fill="#9F3A38" d="M75.792,77.791L75.792,77.791c1.249-1.25,1.666-2.5,1.666-4.584
		c0-3.334-2.916-6.25-6.25-6.25c-1.666,0-3.333,0.834-4.583,1.666l0,0l0,0l0,0c-5.417,5.418-12.5,8.334-20.416,8.334
		c-16.25,0-29.166-12.916-29.166-29.166s12.916-29.166,29.166-29.166c7.916,0,15.416,3.333,20.416,8.75l0,0
		c1.25,1.25,2.917,2.083,4.583,2.083c3.334,0,6.25-2.917,6.25-6.25c0-1.667-0.834-3.333-1.666-4.583l0,0
		c-7.5-7.5-17.917-12.084-29.583-12.084c-22.916,0-41.665,18.75-41.665,41.666c0,22.916,18.75,41.665,41.665,41.665
		C57.875,89.872,68.292,85.291,75.792,77.791z"/>
	<g id="info_1_" display="inline">
	</g>
	<g id="icons_1_" display="inline">
		<path id="share_1_" fill="#9F3A38" d="M86.255,61.811l-21.709-0.218c-1.722,0.066-1.887-1.824-0.501-3.255l5.711-5.905
			c-7.208-6.971-17.535-8.996-27.371-6.382c-2.586,0.614-4.295-2.771-2.221-4.229c2.938-2.005,6.046-3.848,9.497-5.013
			c10.011-3.825,21.893-2.377,29.958,5.423l5.192-5.37c1.384-1.43,3.279-1.33,3.271,0.394l0.942,21.691
			C89.021,60.326,87.635,61.759,86.255,61.811z"/>
	</g>
</g>
<g id="logout" display="none">
	<path display="inline" fill="#FFFFFF" d="M73.248,78.791L73.248,78.791c1.249-1.25,1.666-2.5,1.666-4.584
		c0-3.334-2.916-6.25-6.25-6.25c-1.666,0-3.333,0.834-4.583,1.666l0,0l0,0l0,0c-5.417,5.418-12.5,8.334-20.416,8.334
		c-16.25,0-29.166-12.916-29.166-29.166s12.916-29.166,29.166-29.166c7.916,0,15.416,3.333,20.416,8.75l0,0
		c1.25,1.25,2.917,2.083,4.583,2.083c3.334,0,6.25-2.917,6.25-6.25c0-1.667-0.834-3.333-1.666-4.583l0,0
		c-7.5-7.5-17.917-12.084-29.583-12.084C20.75,7.542,2,26.291,2,49.208c0,22.916,18.75,41.665,41.665,41.665
		C55.331,90.872,65.748,86.291,73.248,78.791z"/>
	<g id="info_4_" display="inline">
	</g>
	<g id="icons_4_" display="inline">
		<path id="share_4_" fill="#FFFFFF" d="M98.711,53.436L79.774,64.053c-1.46,0.916-2.544-0.642-2.055-2.572l2.014-7.965
			c-9.722-2.458-19.687,0.926-26.916,8.089c-1.937,1.819-5.104-0.265-4.031-2.562c1.55-3.202,3.329-6.348,5.742-9.075
			c6.778-8.301,17.805-12.959,28.683-10.208l1.83-7.242c0.489-1.929,2.183-2.786,3.033-1.287l11.614,18.343
			C100.371,50.772,99.883,52.705,98.711,53.436z"/>
	</g>
</g>
<g id="Layer_7">
	<path fill="#00304C" d="M73.248,78.791L73.248,78.791c1.249-1.25,1.666-2.5,1.666-4.584c0-3.334-2.916-6.25-6.25-6.25
		c-1.666,0-3.333,0.834-4.583,1.666l0,0l0,0l0,0c-5.417,5.418-12.5,8.334-20.416,8.334c-16.25,0-29.166-12.916-29.166-29.166
		s12.916-29.166,29.166-29.166c7.916,0,15.416,3.333,20.416,8.75l0,0c1.25,1.25,2.917,2.083,4.583,2.083
		c3.334,0,6.25-2.917,6.25-6.25c0-1.667-0.834-3.333-1.666-4.583l0,0c-7.5-7.5-17.917-12.084-29.583-12.084
		C20.75,7.542,2,26.291,2,49.208c0,22.916,18.75,41.665,41.665,41.665C55.331,90.872,65.748,86.291,73.248,78.791z"/>
	<g id="info_5_">
	</g>
	<g id="icons_5_">
		<path id="share_5_" fill="#00304C" d="M98.711,53.436L79.774,64.053c-1.46,0.916-2.544-0.642-2.055-2.572l2.014-7.965
			c-9.722-2.458-19.687,0.926-26.916,8.089c-1.937,1.819-5.104-0.265-4.031-2.562c1.55-3.202,3.329-6.348,5.742-9.075
			c6.778-8.301,17.805-12.959,28.683-10.208l1.83-7.242c0.489-1.929,2.183-2.786,3.033-1.287l11.614,18.343
			C100.371,50.772,99.883,52.705,98.711,53.436z"/>
	</g>
</g>
</svg>
